<?xml version="1.0" encoding="utf-8"?><!-- Uploaded to: SVG Repo, www.svgrepo.com, Generator: SVG Repo Mixer Tools -->
<svg 
  width="24"
  height="24"
  viewBox="0 0 24 24"
  fill="none"
  xmlns="http://www.w3.org/2000/svg"
>
  <path
    d="M8 6C8 7.10457 7.10457 8 6 8C4.89543 8 4 7.10457 4 6C4 4.89543 4.89543 4 6 4C7.10457 4 8 4.89543 8 6Z"
    fill="#b6b8ba"
  />
  <path
    d="M8 12C8 13.1046 7.10457 14 6 14C4.89543 14 4 13.1046 4 12C4 10.8954 4.89543 10 6 10C7.10457 10 8 10.8954 8 12Z"
    fill="#b6b8ba"
  />
  <path
    d="M6 20C7.10457 20 8 19.1046 8 18C8 16.8954 7.10457 16 6 16C4.89543 16 4 16.8954 4 18C4 19.1046 4.89543 20 6 20Z"
    fill="#b6b8ba"
  />
  <path
    d="M14 6C14 7.10457 13.1046 8 12 8C10.8954 8 10 7.10457 10 6C10 4.89543 10.8954 4 12 4C13.1046 4 14 4.89543 14 6Z"
    fill="#b6b8ba"
  />
  <path
    d="M12 14C13.1046 14 14 13.1046 14 12C14 10.8954 13.1046 10 12 10C10.8954 10 10 10.8954 10 12C10 13.1046 10.8954 14 12 14Z"
    fill="#b6b8ba"
  />
  <path
    d="M14 18C14 19.1046 13.1046 20 12 20C10.8954 20 10 19.1046 10 18C10 16.8954 10.8954 16 12 16C13.1046 16 14 16.8954 14 18Z"
    fill="#b6b8ba"
  />
</svg>